<svg xmlns="http://www.w3.org/2000/svg" viewBox="0 0 1024 1024" role="img" fill="white" width="55px" height="55px" style="border-radius: 50%;"><path d="M512 218.96c-159.94 0-289.96 130.02-290.18 289.96a288.678 288.678 0 0044.44 154.22l6.82 11-29.26 106.92 109.78-28.82 10.56 6.38a289.196 289.196 0 00147.62 40.48h.22c159.72 0 293.26-130.02 293.26-289.96 0-77.44-33.44-150.26-88.22-205.04-55-55-127.6-85.14-205.04-85.14zm170.5 414.48c-7.26 20.46-42.02 38.94-58.74 41.36-27.72 4.18-49.28 1.98-104.5-21.78-87.34-37.84-144.54-125.84-148.94-131.56s-35.64-47.3-35.64-90.2 22.44-64.02 30.58-72.82c7.92-8.8 17.38-11 23.32-11 5.72 0 11.66 0 16.72.22 5.28.22 12.54-1.98 19.58 14.96 7.26 17.38 24.64 60.28 26.84 64.68 2.2 4.4 3.74 9.46.66 15.18-16.72 33.44-34.54 32.12-25.52 47.52 33.66 57.86 67.32 77.88 118.58 103.62 8.8 4.4 13.86 3.74 18.92-2.2 5.06-5.72 21.78-25.52 27.5-34.1 5.72-8.8 11.66-7.26 19.58-4.4 7.92 2.86 50.82 23.98 59.62 28.38 8.8 4.4 14.52 6.6 16.72 10.12 1.98 4.18 1.98 21.78-5.28 42.02zM960 0H64A64 64 0 000 64v896a64 64 0 0064 64h896a64 64 0 0064-64V64a64 64 0 00-64-64zM511.78 857.84a348.563 348.563 0 01-166.76-42.46L160 864l49.5-180.84a347.639 347.639 0 01-46.64-174.46C163.08 316.42 319.5 160 511.78 160c93.28 0 180.84 36.3 246.84 102.3C824.4 328.3 864 415.86 864 509.14c0 192.28-159.94 348.7-352.22 348.7z"/></svg>